<svg xmlns="http://www.w3.org/2000/svg" xmlns:xlink="http://www.w3.org/1999/xlink" width="250" height="61.874" viewBox="0 0 250 61.874">
  <defs>
    <clipPath id="clip-path">
      <rect id="Rectangle_1" data-name="Rectangle 1" width="250" height="61.874" fill="none"/>
    </clipPath>
  </defs>
  <g id="templately_Color_Version.a78e7e67" data-name="templately_Color Version.a78e7e67" clip-path="url(#clip-path)">
    <g id="templately_Color_Version.a78e7e67-2" data-name="templately_Color Version.a78e7e67" transform="translate(0 0)">
      <circle id="Ellipse_254" data-name="Ellipse 254" cx="6.875" cy="6.875" r="6.875" transform="translate(0 48.124)" fill="#ffb45a"/>
      <circle id="Ellipse_255" data-name="Ellipse 255" cx="6.875" cy="6.875" r="6.875" transform="translate(20.125 48.124)" fill="#ff7b8e"/>
      <g id="Group_364" data-name="Group 364" transform="translate(0)">
        <circle id="Ellipse_256" data-name="Ellipse 256" cx="6.875" cy="6.875" r="6.875" transform="translate(40.124 48.124)" fill="#5ac0ff"/>
        <path id="Path_382" data-name="Path 382" d="M39.125,11.6H38A14.736,14.736,0,0,0,23.624.1a14.528,14.528,0,0,0-5.25,1v4.88H25.5v7H18.374V24.849h7.375a14.019,14.019,0,0,0-.626,1.625A7.252,7.252,0,0,1,16.99,30.85a7.346,7.346,0,0,1-5.869-6.875V12.854H8.631A14.985,14.985,0,0,0,0,26.225,14.772,14.772,0,0,0,14.749,40.974h24.5A14.689,14.689,0,0,0,39.125,11.6Z" transform="translate(0 -0.1)" fill="#fff"/>
      </g>
      <g id="Group_365" data-name="Group 365" transform="translate(73.5 14.5)">
        <path id="Path_383" data-name="Path 383" d="M66.05,33.3c-1.494,0-2.375-.875-2.375-2.624v-8.75h4.254V18.05H63.175l-.75-3.75H58.8V32.05c0,3.5,1.625,5.125,4.75,5.125H67.8V33.3Z" transform="translate(-58.8 -11.05)" fill="#fff"/>
        <path id="Path_384" data-name="Path 384" d="M77.1,17.3q-9,0-9,9.375c0,6.5,3.5,9.75,10.375,9.75a28.815,28.815,0,0,0,6.125-.5V32.049a29.792,29.792,0,0,1-5.75.5c-4,0-6-1.374-6-4H85.6a15.129,15.129,0,0,0,.124-2.375C85.85,20.3,82.849,17.3,77.1,17.3Zm-4.125,7.874q.375-4.125,4.125-4.125a3.569,3.569,0,0,1,4,4v.124Z" transform="translate(-56.475 -10.301)" fill="#fff"/>
        <path id="Path_385" data-name="Path 385" d="M106.724,17.313a9.205,9.205,0,0,0-6.125,2.624,5.018,5.018,0,0,0-5-2.624,7.824,7.824,0,0,0-6.125,2.75l-.626-2.75H85.1V36.437h4.875V23.189a5.686,5.686,0,0,1,4-1.876c1.749,0,2.626,1.125,2.626,3.25v12h4.875V23.313a6.186,6.186,0,0,1,4.125-1.876c1.876,0,2.875,1,2.875,3.25v12h4.875V24.814C113.35,19.688,111.1,17.313,106.724,17.313Z" transform="translate(-52.226 -10.314)" fill="#fff"/>
        <path id="Path_386" data-name="Path 386" d="M119.4,17.3a40.453,40.453,0,0,0-8,.75V44.425h4.875V35.558a8.737,8.737,0,0,0,3.876.875c6,0,9.129-3.374,9.129-10C129.15,20.3,125.9,17.3,119.4,17.3Zm.626,15.124a8.508,8.508,0,0,1-3.876-1v-10a23.378,23.378,0,0,1,3.374-.251c3.125,0,4.75,1.749,4.75,5.125.124,4.125-1.376,6.125-4.244,6.125Z" transform="translate(-45.65 -10.301)" fill="#fff"/>
        <rect id="Rectangle_465" data-name="Rectangle 465" width="4.875" height="25.999" transform="translate(87.123)" fill="#fff"/>
        <path id="Path_387" data-name="Path 387" d="M143.775,17.3a29.711,29.711,0,0,0-7,.875V22.05a28.958,28.958,0,0,1,7-.875q3.75,0,3.75,2.624v1.494a20.35,20.35,0,0,0-3.876-.375c-5.5,0-8.249,1.876-8.249,5.75,0,4,2.375,6,7,6a9.587,9.587,0,0,0,5.5-1.749l1.749,1.749h2.75V23.8C152.275,19.292,149.4,17.3,143.775,17.3Zm-.75,15.625c-1.992,0-2.875-.875-2.875-2.5s1.125-2.375,3.5-2.375a19.407,19.407,0,0,1,3.876.375v3a8.065,8.065,0,0,1-4.5,1.494Z" transform="translate(-39.651 -10.301)" fill="#fff"/>
        <path id="Path_388" data-name="Path 388" d="M159.45,33.3c-1.494,0-2.375-.875-2.375-2.624v-8.75h4.249V18.05h-4.75l-.75-3.75H152.2V32.05c0,3.5,1.625,5.125,4.75,5.125H161.2V33.3Z" transform="translate(-35.451 -11.05)" fill="#fff"/>
        <path id="Path_389" data-name="Path 389" d="M170.5,17.3q-9,0-9,9.375c0,6.5,3.5,9.75,10.375,9.75a28.814,28.814,0,0,0,6.125-.5V32.049a29.792,29.792,0,0,1-5.75.5c-4,0-6-1.374-6-4H179a15.125,15.125,0,0,0,.124-2.375C179.25,20.175,176.251,17.3,170.5,17.3Zm-4.125,7.874q.375-4.125,4.125-4.125a3.569,3.569,0,0,1,4,4v.124Z" transform="translate(-33.127 -10.301)" fill="#fff"/>
        <rect id="Rectangle_466" data-name="Rectangle 466" width="4.875" height="25.999" transform="translate(149.748)" fill="#fff"/>
        <path id="Path_390" data-name="Path 390" d="M198.951,17.2,194.2,30.95,189.325,17.2H184.2l7.374,19.254a9.261,9.261,0,0,1-4.624,4.624l2.375,3.25a13.507,13.507,0,0,0,6.75-7.375L203.952,17.2Z" transform="translate(-27.451 -10.325)" fill="#fff"/>
      </g>
    </g>
  </g>
</svg>
